<svg viewBox="0 0 640 400" data-background-color="#ffffff" preserveAspectRatio="xMidYMid meet" height="400" width="640" xmlns="http://www.w3.org/2000/svg" xmlns:xlink="http://www.w3.org/1999/xlink"><rect width="640" height="400" x="0" y="0" opacity="1" fill="#ffffff" data-fill-palette-color="background" id="background"></rect><g id="tight-bounds" transform="matrix(1,0,0,1,122.24000000000001,76.4)"><svg viewBox="0 0 395.52 247.2" height="247.2" width="395.52"><g><svg></svg></g><g><svg viewBox="0 0 395.52 247.2" height="247.2" width="395.52"><g transform="matrix(1,0,0,1,92.26388333279999,92.52257632667934)"><svg viewBox="0 0 210.9922333344 62.154847346641304" height="62.154847346641304" width="210.9922333344"><g><svg viewBox="0 0 210.9922333344 62.154847346641304" height="62.154847346641304" width="210.9922333344"><g><svg viewBox="0 0 210.9922333344 62.154847346641304" height="62.154847346641304" width="210.9922333344"><g><path d="M0 62.155v-62.155h210.992v62.155z" fill="#6f605b" stroke="transparent" stroke-width="0" rx="0%" data-fill-palette-color="tertiary"></path><path d="M2.787 59.368v-56.581h205.419v56.581z" fill="#ffffff" stroke="transparent" stroke-width="0" rx="0%" data-fill-palette-color="quaternary"></path><path d="M8.36 53.795v-45.435h194.272v45.435z" fill="#6f605b" stroke="transparent" stroke-width="0" data-fill-palette-color="tertiary"></path></g><g transform="matrix(1,0,0,1,16.7195633328,16.7195633328)"><svg viewBox="0 0 177.5531066688 28.715720681041308" height="28.715720681041308" width="177.5531066688"><g><svg viewBox="0 0 177.5531066688 28.715720681041308" height="28.715720681041308" width="177.5531066688"><g transform="matrix(1,0,0,1,0,0)"><svg width="177.5531066688" viewBox="2.450000047683716 -40.95000076293945 256.5699768066406 41.5" height="28.715720681041308" data-palette-color="#ffffff"><path d="M13.95 0.55L13.95 0.55Q9.5 0.55 6.98-1.2 4.45-2.95 3.45-5.98 2.45-9 2.45-12.95L2.45-12.95 2.45-27.4Q2.45-31.55 3.45-34.6 4.45-37.65 6.98-39.3 9.5-40.95 13.95-40.95L13.95-40.95Q18.15-40.95 20.53-39.53 22.9-38.1 23.9-35.45 24.9-32.8 24.9-29.3L24.9-29.3 24.9-25.9 17.8-25.9 17.8-29.4Q17.8-31.1 17.63-32.5 17.45-33.9 16.68-34.73 15.9-35.55 14-35.55L14-35.55Q12.1-35.55 11.23-34.68 10.35-33.8 10.1-32.33 9.85-30.85 9.85-29L9.85-29 9.85-11.4Q9.85-9.2 10.2-7.78 10.55-6.35 11.48-5.63 12.4-4.9 14-4.9L14-4.9Q15.85-4.9 16.63-5.78 17.4-6.65 17.6-8.1 17.8-9.55 17.8-11.35L17.8-11.35 17.8-15 24.9-15 24.9-11.75Q24.9-8.15 23.95-5.38 23-2.6 20.63-1.03 18.25 0.55 13.95 0.55ZM35.2 0.45L35.2 0.45Q33.25 0.45 31.85-0.58 30.45-1.6 29.7-3.18 28.95-4.75 28.95-6.45L28.95-6.45Q28.95-9.15 29.95-11 30.95-12.85 32.6-14.1 34.25-15.35 36.35-16.28 38.45-17.2 40.6-17.95L40.6-17.95 40.6-20.45Q40.6-21.7 40.42-22.55 40.25-23.4 39.77-23.85 39.3-24.3 38.3-24.3L38.3-24.3Q37.45-24.3 36.92-23.9 36.4-23.5 36.17-22.78 35.95-22.05 35.9-21.1L35.9-21.1 35.8-19.35 29.35-19.6Q29.5-24.6 31.82-26.98 34.15-29.35 38.9-29.35L38.9-29.35Q43.25-29.35 45.22-26.95 47.2-24.55 47.2-20.45L47.2-20.45 47.2-7.1Q47.2-5.5 47.27-4.2 47.35-2.9 47.47-1.85 47.6-0.8 47.7 0L47.7 0 41.6 0Q41.45-1 41.22-2.27 41-3.55 40.9-4.15L40.9-4.15Q40.4-2.4 39-0.98 37.6 0.45 35.2 0.45ZM37.7-4.6L37.7-4.6Q38.35-4.6 38.92-4.93 39.5-5.25 39.95-5.7 40.4-6.15 40.6-6.5L40.6-6.5 40.6-14.55Q39.5-13.9 38.52-13.25 37.55-12.6 36.82-11.83 36.1-11.05 35.72-10.15 35.35-9.25 35.35-8.05L35.35-8.05Q35.35-6.45 35.97-5.53 36.6-4.6 37.7-4.6ZM59.14 0L52.34 0 52.34-28.9 59.14-28.9 59.14-24.45Q60.64-27 62.14-28.13 63.64-29.25 65.44-29.25L65.44-29.25Q65.75-29.25 65.97-29.23 66.19-29.2 66.5-29.15L66.5-29.15 66.5-22.1Q65.89-22.35 65.17-22.53 64.44-22.7 63.7-22.7L63.7-22.7Q62.34-22.7 61.24-22.05 60.14-21.4 59.14-19.9L59.14-19.9 59.14 0ZM77.04 0L70.29 0 70.29-40.5 77.04-40.5 77.04 0ZM91.19 0.45L91.19 0.45Q88.04 0.45 85.99-0.73 83.94-1.9 82.92-4.15 81.89-6.4 81.89-9.6L81.89-9.6 81.89-19.3Q81.89-22.5 82.92-24.75 83.94-27 85.99-28.18 88.04-29.35 91.19-29.35L91.19-29.35Q94.34-29.35 96.42-28.18 98.49-27 99.52-24.75 100.54-22.5 100.54-19.3L100.54-19.3 100.54-9.6Q100.54-6.4 99.52-4.15 98.49-1.9 96.42-0.73 94.34 0.45 91.19 0.45ZM91.24-4.25L91.24-4.25Q92.39-4.25 92.94-4.9 93.49-5.55 93.64-6.68 93.79-7.8 93.79-9.15L93.79-9.15 93.79-19.75Q93.79-21.1 93.64-22.2 93.49-23.3 92.94-23.98 92.39-24.65 91.24-24.65L91.24-24.65Q90.09-24.65 89.54-23.98 88.99-23.3 88.81-22.2 88.64-21.1 88.64-19.75L88.64-19.75 88.64-9.15Q88.64-7.8 88.81-6.68 88.99-5.55 89.54-4.9 90.09-4.25 91.24-4.25ZM113.04 0.45L113.04 0.45Q109.39 0.45 107.04-1.5 104.69-3.45 103.69-7.2L103.69-7.2 108.74-9.15Q109.34-6.8 110.34-5.55 111.34-4.3 112.94-4.3L112.94-4.3Q114.14-4.3 114.74-4.9 115.34-5.5 115.34-6.55L115.34-6.55Q115.34-7.75 114.61-8.72 113.89-9.7 112.14-11.15L112.14-11.15 108.64-14.1Q106.74-15.75 105.56-17.48 104.39-19.2 104.39-21.8L104.39-21.8Q104.39-24.15 105.46-25.83 106.54-27.5 108.41-28.43 110.29-29.35 112.59-29.35L112.59-29.35Q116.09-29.35 118.21-27.28 120.34-25.2 120.94-21.85L120.94-21.85 116.49-19.95Q116.24-21.15 115.76-22.18 115.29-23.2 114.54-23.85 113.79-24.5 112.79-24.5L112.79-24.5Q111.74-24.5 111.11-23.85 110.49-23.2 110.49-22.2L110.49-22.2Q110.49-21.35 111.21-20.45 111.94-19.55 113.29-18.4L113.29-18.4 116.84-15.2Q117.99-14.2 119.04-13.05 120.09-11.9 120.79-10.48 121.49-9.05 121.49-7.2L121.49-7.2Q121.49-4.7 120.36-3 119.24-1.3 117.31-0.43 115.39 0.45 113.04 0.45ZM146.08 0.45L146.08 0.45Q142.83 0.45 140.78-0.78 138.73-2 137.76-4.38 136.78-6.75 136.78-10.1L136.78-10.1 136.78-18.8Q136.78-22.25 137.76-24.6 138.73-26.95 140.81-28.15 142.88-29.35 146.08-29.35L146.08-29.35Q149.53-29.35 151.46-28.05 153.38-26.75 154.21-24.28 155.03-21.8 155.03-18.25L155.03-18.25 155.03-14.15 143.53-14.15 143.53-8.45Q143.53-7.05 143.81-6.15 144.08-5.25 144.68-4.85 145.28-4.45 146.13-4.45L146.13-4.45Q147.03-4.45 147.58-4.88 148.13-5.3 148.38-6.13 148.63-6.95 148.63-8.2L148.63-8.2 148.63-10.6 154.98-10.6 154.98-8.65Q154.98-4.25 152.78-1.9 150.58 0.45 146.08 0.45ZM143.53-19.5L143.53-17.5 148.63-17.5 148.63-20.25Q148.63-21.75 148.38-22.68 148.13-23.6 147.58-24.03 147.03-24.45 146.03-24.45L146.03-24.45Q145.13-24.45 144.58-24 144.03-23.55 143.78-22.5 143.53-21.45 143.53-19.5L143.53-19.5ZM170.28 0.55L170.28 0.55Q166.63 0.55 164.18-0.88 161.73-2.3 160.48-5.05 159.23-7.8 159.08-11.8L159.08-11.8 165.43-13.05Q165.53-10.7 166.01-8.9 166.48-7.1 167.46-6.13 168.43-5.15 170.03-5.15L170.03-5.15Q171.83-5.15 172.58-6.23 173.33-7.3 173.33-8.95L173.33-8.95Q173.33-11.6 172.13-13.3 170.93-15 168.93-16.7L168.93-16.7 163.83-21.2Q161.68-23.05 160.41-25.33 159.13-27.6 159.13-30.95L159.13-30.95Q159.13-35.75 161.93-38.35 164.73-40.95 169.58-40.95L169.58-40.95Q172.43-40.95 174.33-40.08 176.23-39.2 177.36-37.65 178.48-36.1 179.03-34.13 179.58-32.15 179.73-29.95L179.73-29.95 173.43-28.85Q173.33-30.75 173.01-32.25 172.68-33.75 171.86-34.6 171.03-35.45 169.43-35.45L169.43-35.45Q167.78-35.45 166.91-34.38 166.03-33.3 166.03-31.7L166.03-31.7Q166.03-29.65 166.88-28.33 167.73-27 169.33-25.6L169.33-25.6 174.38-21.15Q176.88-19.05 178.66-16.23 180.43-13.4 180.43-9.4L180.43-9.4Q180.43-6.5 179.16-4.25 177.88-2 175.61-0.73 173.33 0.55 170.28 0.55ZM192.68 0.35L192.68 0.35Q189.93 0.35 188.35-0.55 186.78-1.45 186.13-3.15 185.48-4.85 185.48-7.2L185.48-7.2 185.48-24.4 182.58-24.4 182.58-28.9 185.48-28.9 185.48-37.55 192.33-37.55 192.33-28.9 196.73-28.9 196.73-24.4 192.33-24.4 192.33-7.8Q192.33-6.3 192.98-5.68 193.63-5.05 194.93-5.05L194.93-5.05Q195.48-5.05 196-5.1 196.53-5.15 197.03-5.2L197.03-5.2 197.03 0Q196.18 0.1 195.05 0.23 193.93 0.35 192.68 0.35ZM209.68 0.45L209.68 0.45Q206.53 0.45 204.48-0.73 202.43-1.9 201.4-4.15 200.38-6.4 200.38-9.6L200.38-9.6 200.38-19.3Q200.38-22.5 201.4-24.75 202.43-27 204.48-28.18 206.53-29.35 209.68-29.35L209.68-29.35Q212.83-29.35 214.9-28.18 216.98-27 218-24.75 219.03-22.5 219.03-19.3L219.03-19.3 219.03-9.6Q219.03-6.4 218-4.15 216.98-1.9 214.9-0.73 212.83 0.45 209.68 0.45ZM209.73-4.25L209.73-4.25Q210.88-4.25 211.43-4.9 211.98-5.55 212.13-6.68 212.28-7.8 212.28-9.15L212.28-9.15 212.28-19.75Q212.28-21.1 212.13-22.2 211.98-23.3 211.43-23.98 210.88-24.65 209.73-24.65L209.73-24.65Q208.58-24.65 208.03-23.98 207.48-23.3 207.3-22.2 207.13-21.1 207.13-19.75L207.13-19.75 207.13-9.15Q207.13-7.8 207.3-6.68 207.48-5.55 208.03-4.9 208.58-4.25 209.73-4.25ZM230.62 0L223.82 0 223.82-28.9 230.62-28.9 230.62-24.45Q232.12-27 233.62-28.13 235.12-29.25 236.92-29.25L236.92-29.25Q237.22-29.25 237.45-29.23 237.67-29.2 237.97-29.15L237.97-29.15 237.97-22.1Q237.37-22.35 236.65-22.53 235.92-22.7 235.17-22.7L235.17-22.7Q233.82-22.7 232.72-22.05 231.62-21.4 230.62-19.9L230.62-19.9 230.62 0ZM250.07 0.45L250.07 0.45Q246.82 0.45 244.77-0.78 242.72-2 241.75-4.38 240.77-6.75 240.77-10.1L240.77-10.1 240.77-18.8Q240.77-22.25 241.75-24.6 242.72-26.95 244.8-28.15 246.87-29.35 250.07-29.35L250.07-29.35Q253.52-29.35 255.45-28.05 257.37-26.75 258.2-24.28 259.02-21.8 259.02-18.25L259.02-18.25 259.02-14.15 247.52-14.15 247.52-8.45Q247.52-7.05 247.8-6.15 248.07-5.25 248.67-4.85 249.27-4.45 250.12-4.45L250.12-4.45Q251.02-4.45 251.57-4.88 252.12-5.3 252.37-6.13 252.62-6.95 252.62-8.2L252.62-8.2 252.62-10.6 258.97-10.6 258.97-8.65Q258.97-4.25 256.77-1.9 254.57 0.45 250.07 0.45ZM247.52-19.5L247.52-17.5 252.62-17.5 252.62-20.25Q252.62-21.75 252.37-22.68 252.12-23.6 251.57-24.03 251.02-24.45 250.02-24.45L250.02-24.45Q249.12-24.45 248.57-24 248.02-23.55 247.77-22.5 247.52-21.45 247.52-19.5L247.52-19.5Z" opacity="1" transform="matrix(1,0,0,1,0,0)" fill="#ffffff" class="undefined-text-0" data-fill-palette-color="quaternary" id="text-0"></path></svg></g></svg></g></svg></g></svg></g><g></g></svg></g></svg></g><g><path d="M98.835 86.949A105.496 105.496 0 0 1 296.685 86.949L294.556 86.949A103.367 103.367 0 0 0 100.964 86.949L98.835 86.949M98.835 160.251A105.496 105.496 0 0 0 296.685 160.251L294.556 160.251A103.367 103.367 0 0 1 100.964 160.251L98.835 160.251" fill="#6f605b" stroke="transparent" data-fill-palette-color="tertiary"></path></g></svg></g></svg><rect width="395.52" height="247.2" fill="transparent" stroke="transparent"></rect></g><defs></defs></svg>